<svg xmlns="http://www.w3.org/2000/svg" xmlns:xlink="http://www.w3.org/1999/xlink" width="72" height="56" viewBox="0 0 72 56">    <defs>        <path id="xw3py05wga" d="M0 0H72V56H0z"/>        <path id="rnvrt15nfc" d="M37.501 50.4c-6.097 0-11.645-2.352-15.786-6.199h1.822C27.336 47.325 32.2 49.2 37.501 49.2s10.166-1.876 13.965-5h1.822c-4.14 3.848-9.689 6.2-15.787 6.2zm0-46.4c6.61 0 12.575 2.764 16.8 7.2h-1.7c-3.94-3.72-9.254-6-15.1-6s-11.16 2.28-15.1 6h-1.7c4.226-4.436 10.19-7.2 16.8-7.2z"/>    </defs>    <g fill="none" fill-rule="evenodd">        <g>            <g>                <g>                    <g>                        <g>                            <g transform="translate(-3514 -2553) translate(3200 80) translate(52 2285) translate(0 140) translate(262) translate(0 48)">                                <mask id="azd522owcb" fill="#fff">                                    <use xlink:href="#xw3py05wga"/>                                </mask>                                <g mask="url(#azd522owcb)" opacity=".6">                                    <g transform="translate(-1 1)">                                        <g fill="#787878">                                            <path fill-rule="nonzero" d="M26.54 12V9.031h3.173V12h1.474V4.954h-1.474v2.861h-3.174v-2.86h-1.475V12h1.475zm9.74-9.17l1.05-1.21H36.13l-.903 1.21h1.054zm-2.353 1.66l.747-.815h.039l.747.815h1.108L35.26 3.113h-1.133L32.818 4.49h1.109zm3.1 7.51v-1.22h-3.193V9.001h3.013V7.869h-3.013v-1.7h3.193V4.955H32.36V12h4.668zm4.224 0V6.17h2.041V4.954H37.74V6.17h2.036V12h1.475zM13.336 24v-2.969h3.174V24h1.474v-7.046H16.51v2.861h-3.174v-2.86H11.86V24h1.475zm7.295 0v-7.046h-1.475V24h1.475zm2.773-7.583l.713-.903h.04l.712.903h1.07l-1.255-1.514H23.59l-1.255 1.514h1.07zM26.471 24v-1.22h-3.194v-1.778h3.013v-1.133h-3.013v-1.7h3.194v-1.215h-4.668V24h4.668zm-2.34 2.06c.416 0 .743-.331.743-.732 0-.405-.327-.732-.742-.732s-.742.327-.742.732c0 .4.327.733.742.733zm6.358-1.938c1.802 0 2.95-1.06 2.95-2.612v-4.556h-1.475v4.41c0 .903-.532 1.493-1.475 1.493-.947 0-1.48-.59-1.48-1.494v-4.409h-1.474v4.556c0 1.552 1.148 2.612 2.954 2.612zM41.144 24v-1.22h-3.081v-5.826h-1.475V24h4.556zm3.828.122c1.782 0 2.949-1.035 2.949-2.612v-3.614h.464c.688 0 1.108-.38 1.108-1.04V15.69h-1.128v.89c0 .248-.136.375-.39.375h-1.529v4.414c0 .928-.556 1.49-1.474 1.49-.918 0-1.48-.562-1.48-1.49v-4.414h-1.474v4.556c0 1.577 1.171 2.612 2.954 2.612zm-.005 1.939c.415 0 .742-.332.742-.733 0-.405-.327-.732-.742-.732s-.742.327-.742.732c0 .4.327.733.742.733zm8.335-1.939c1.728 0 2.934-.996 3.1-2.568h-1.435c-.156.835-.786 1.347-1.66 1.347-1.128 0-1.836-.927-1.836-2.431 0-1.485.717-2.417 1.83-2.417.86 0 1.524.566 1.66 1.43h1.436c-.112-1.577-1.4-2.651-3.095-2.651-2.041 0-3.335 1.372-3.335 3.643 0 2.275 1.284 3.647 3.335 3.647z" transform="rotate(-15 84.872 9.306)"/>                                            <path d="M64.842.12H3.969c-.875 0-1.312.118-1.766.462-.417.315-.747.782-.97 1.37C1.01 2.541.92 3.108.907 4.151L.905 24.79c0 1.236.085 1.853.328 2.495.223.589.553 1.056.97 1.37.454.344.89.463 1.766.463h60.873c.875 0 1.311-.119 1.766-.462.417-.315.747-.782.97-1.371.243-.642.327-1.259.327-2.495V4.447c0-1.236-.084-1.853-.327-2.495-.223-.588-.553-1.055-.97-1.37-.455-.344-.891-.463-1.766-.463zM3.635 1.12l61.36-.002c.702 0 .959.073 1.223.282.216.17.381.414.496.732.142.39.191.77.191 1.807v21.359l-.005.504c-.016.671-.07.983-.186 1.302-.115.318-.28.562-.496.732-.264.209-.52.282-1.224.282H3.816l-.342-.007c-.454-.024-.665-.104-.882-.275-.215-.17-.38-.414-.496-.732-.128-.355-.18-.7-.19-1.54V3.94c0-1.038.049-1.417.19-1.807.115-.318.281-.562.496-.732.24-.19.475-.267 1.043-.28z" transform="rotate(-15 84.872 9.306)"/>                                        </g>                                        <use fill="#787878" transform="rotate(-15 37.501 27.2)" xlink:href="#rnvrt15nfc"/>                                    </g>                                </g>                            </g>                        </g>                    </g>                </g>            </g>        </g>    </g></svg>