<svg xmlns="http://www.w3.org/2000/svg" xmlns:xlink="http://www.w3.org/1999/xlink" width="72" height="56" viewBox="0 0 72 56">    <defs>        <path id="8kgtgvd4ba" d="M0 0H72V56H0z"/>        <path id="fz8b8bxfzc" d="M31 50.4c-7.554 0-14.264-3.61-18.5-9.2h1.53c4.034 4.886 10.138 8 16.97 8 6.832 0 12.936-3.114 16.97-8h1.53c-4.236 5.59-10.946 9.2-18.5 9.2zM31 4c7.554 0 14.265 3.61 18.501 9.2h-1.53c-4.034-4.886-10.139-8-16.971-8-6.832 0-12.937 3.114-16.972 8h-1.53C16.736 7.61 23.447 4 31 4z"/>    </defs>    <g fill="none" fill-rule="evenodd">        <g>            <g>                <g>                    <g>                        <g transform="translate(-3252 -2553) translate(3200 80) translate(52 2285) translate(0 140) translate(0 48)">                            <mask id="aw0ice0jqb" fill="#fff">                                <use xlink:href="#8kgtgvd4ba"/>                            </mask>                            <g mask="url(#aw0ice0jqb)" opacity=".6">                                <g transform="translate(6 1)">                                    <g fill="#017FFF" fill-rule="nonzero">                                        <path d="M13.792 15.51c2.114 0 3.36-1.313 3.36-3.549 0-2.236-1.246-3.496-3.36-3.496h-2.69v2.925h-.572v1.084h.571v3.037h2.69zm-.176-1.22h-1.04v-1.816h1.284V11.39h-1.284V9.68h1.04c1.299 0 2.031.811 2.031 2.286 0 1.523-.712 2.324-2.03 2.324zm7.993-6.43c.64 0 1.09-.498 1.099-1.377h-.767c0 .39-.127.586-.38.586-.347 0-.523-.625-1.24-.625-.636 0-1.09.473-1.09 1.372h.767c0-.406.146-.581.371-.581.347 0 .527.625 1.24.625zm-2.441 7.65l.537-1.708h2.476l.537 1.709h1.567l-2.451-7.046H20.1l-2.447 7.046h1.514zm2.695-2.812h-1.84l.903-2.885h.034l.903 2.885zm9.673 2.813v-1.22h-3.081V8.464H26.98v7.046h4.556zm3.828.122c1.782 0 2.95-1.035 2.95-2.612V9.407h.463c.689 0 1.109-.38 1.109-1.04V7.2h-1.128v.889c0 .25-.137.376-.39.376h-1.53v4.414c0 .928-.556 1.49-1.474 1.49-.918 0-1.48-.562-1.48-1.49V8.465H32.41v4.556c0 1.577 1.172 2.612 2.954 2.612zm8.17 0c1.8 0 2.948-1.06 2.948-2.612V8.465h-1.474v4.41c0 .903-.532 1.493-1.475 1.493-.947 0-1.48-.59-1.48-1.494V8.465H40.58v4.556c0 1.552 1.147 2.612 2.954 2.612z" transform="rotate(-15 90.766 11.604)"/>                                        <path d="M54.362.99H3.482c-.73 0-1.095.086-1.475.335-.348.228-.625.566-.811.992-.186.426-.261.837-.272 1.592L.922 18.856c0 .895.07 1.341.274 1.806.186.427.463.765.81.993.38.248.746.335 1.477.335h50.879c.731 0 1.096-.087 1.476-.335.348-.228.624-.566.81-.993.204-.465.274-.911.274-1.806V4.124c0-.895-.07-1.342-.273-1.807-.187-.426-.463-.764-.811-.992-.38-.249-.745-.335-1.476-.335zM3.36 1.99l50.975-.001c.584 0 .797.051 1.017.198.178.12.316.292.412.515.117.275.158.542.158 1.272v15.03l-.004.355c-.013.472-.058.692-.154.916-.096.224-.234.396-.412.515-.22.147-.433.199-1.017.199H3.51l-.284-.006c-.378-.016-.553-.072-.733-.193-.179-.12-.316-.291-.412-.515-.107-.25-.15-.493-.158-1.083V3.975c0-.73.04-.997.158-1.272.096-.223.233-.395.412-.515.2-.133.394-.188.867-.197z" transform="rotate(-15 90.766 11.604)"/>                                    </g>                                    <use fill="#017FFF" fill-rule="nonzero" transform="rotate(-15 31 27.2)" xlink:href="#fz8b8bxfzc"/>                                </g>                            </g>                        </g>                    </g>                </g>            </g>        </g>    </g></svg>